<?xml version="1.0" encoding="UTF-8" standalone="no"?>
<svg
   xmlns:dc="http://purl.org/dc/elements/1.1/"
   xmlns:cc="http://creativecommons.org/ns#"
   xmlns:rdf="http://www.w3.org/1999/02/22-rdf-syntax-ns#"
   xmlns:svg="http://www.w3.org/2000/svg"
   xmlns="http://www.w3.org/2000/svg"
   x="0px" y="0px"
   viewBox="-360 -45 1500 380"
   enable-background="0 0 988 377"
   xml:space="preserve"
   id="svg2"
   version="1.1"><metadata
     id="metadata8"><rdf:RDF><cc:Work
         rdf:about=""><dc:format>image/svg+xml</dc:format><dc:type
           rdf:resource="http://purl.org/dc/dcmitype/StillImage" /></cc:Work></rdf:RDF></metadata><defs
     id="defs6" /><g
     transform="matrix(1,0,0,-1,0,280)"
     id="g10"><g
       transform="scale(0.1)"
       id="g12"><path
         id="path14"
         style="fill:#ed1b29;fill-opacity:1;fill-rule:nonzero;stroke:none"
         d="m 7233.42,1460.27 c -87.64,117.41 -201.16,214.41 -334.32,278.96 156.47,108.57 259.11,289.26 259.11,494.13 0,342.62 -233.21,601.29 -661.28,601.29 H 6327.86 V 1460.27 h 905.56" /><path
         id="path16"
         style="fill:#ed1b29;fill-opacity:1;fill-rule:nonzero;stroke:none"
         d="M 6241.96,1460.27 V 2834.65 H 5411.61 V 1460.27 h 830.35" /><path
         id="path18"
         style="fill:#ed1b29;fill-opacity:1;fill-rule:nonzero;stroke:none"
         d="M 5411.61,1374.38 V 0 h 830.35 v 1374.38 h -830.35" /><path
         id="path20"
         style="fill:#ed1b29;fill-opacity:1;fill-rule:nonzero;stroke:none"
         d="M 6327.86,1374.38 V 0 h 169.07 c 562.83,0 918.98,398.48 918.98,916.25 0,167.57 -46.64,323.33 -125.28,458.13 h -962.77" /><path
         id="path22"
         style="fill:#ed1b29;fill-opacity:1;fill-rule:nonzero;stroke:none"
         d="M 2318.39,1460.27 1832.5,2834.65 H 1460.28 V 1460.27 h 858.11" /><path
         id="path24"
         style="fill:#ed1b29;fill-opacity:1;fill-rule:nonzero;stroke:none"
         d="M 1374.34,1460.27 V 2834.65 H 1002.15 L 516.258,1460.27 h 858.082" /><path
         id="path26"
         style="fill:#ed1b29;fill-opacity:1;fill-rule:nonzero;stroke:none"
         d="M 1374.34,1374.38 H 485.887 L 0,0 h 715.82 l 200.434,572.66 h 458.086 v 801.72" /><path
         id="path28"
         style="fill:#ed1b29;fill-opacity:1;fill-rule:nonzero;stroke:none"
         d="M 1460.28,1374.38 V 572.66 H 1918.4 L 2118.83,0 h 715.82 l -485.89,1374.38 h -888.48" /><path
         id="path30"
         style="fill:#ed1b29;fill-opacity:1;fill-rule:nonzero;stroke:none"
         d="m 4885.53,1460.27 c -87.64,117.41 -201.16,214.41 -334.33,278.97 156.47,108.56 259.12,289.25 259.12,494.12 0,342.62 -233.22,601.29 -661.29,601.29 H 3979.97 V 1460.27 h 905.56" /><path
         id="path32"
         style="fill:#ed1b29;fill-opacity:1;fill-rule:nonzero;stroke:none"
         d="M 3894.07,1460.27 V 2834.65 H 3063.72 V 1460.27 h 830.35" /><path
         id="path34"
         style="fill:#ed1b29;fill-opacity:1;fill-rule:nonzero;stroke:none"
         d="M 3063.72,1374.38 V 0 h 830.35 v 1374.38 h -830.35" /><path
         id="path36"
         style="fill:#ed1b29;fill-opacity:1;fill-rule:nonzero;stroke:none"
         d="M 3979.97,1374.38 V 0 h 169.06 c 562.84,0 918.99,398.488 918.99,916.25 0,167.57 -46.65,323.33 -125.29,458.13 h -962.76" /></g></g></svg>