<?xml version="1.0" encoding="utf-8"?>
<!-- Generator: Adobe Illustrator 16.0.0, SVG Export Plug-In . SVG Version: 6.00 Build 0)  -->
<!DOCTYPE svg PUBLIC "-//W3C//DTD SVG 1.0//EN" "http://www.w3.org/TR/2001/REC-SVG-20010904/DTD/svg10.dtd">
<svg version="1.0" xmlns="http://www.w3.org/2000/svg" xmlns:xlink="http://www.w3.org/1999/xlink" x="0px" y="0px" 
	 viewBox="30 40 200 50" enable-background="new 0 0 595 842" xml:space="preserve">
<g id="Hintergrund">
</g>
<g id="Vordergrund">
	<g>
		<path fill-rule="evenodd" clip-rule="evenodd" fill="#C31924" d="M66.506,65.501c2.573,0.103,4.288,0.034,4.288,3.01
			c0,3.456-1.269,3.25-4.288,3.319V65.501z M66.506,55.409c2.126,0,3.876-0.103,3.876,2.429c0,3.045-1.235,2.874-3.876,3.045V55.409
			z M68.976,76.449c4.905,0,7.854-2.224,7.854-7.424c0-3.182-0.583-4.55-3.327-6.124v-0.068c2.092-1.129,2.916-3.147,2.916-5.405
			c0-5.166-3.567-6.637-8.129-6.637h-7.82v25.659H68.976z"/>
		<polygon fill-rule="evenodd" clip-rule="evenodd" fill="#C31924" points="93.554,76.449 93.554,71.317 85.356,71.317 
			85.356,65.775 92.902,65.775 92.902,60.644 85.356,60.644 85.356,55.922 93.142,55.922 93.142,50.791 79.32,50.791 79.32,76.449 
					"/>
		<path fill-rule="evenodd" clip-rule="evenodd" fill="#C31924" d="M112.292,59.754v-2.155c0-5.234-3.087-7.424-8.232-7.424
			c-5.522,0-8.095,2.6-8.095,8.176v10.537c0,5.234,2.161,8.176,7.717,8.176c6.174,0,8.712-3.079,8.712-7.492v-3.147h-6.037v2.327
			c0,1.574-0.171,3.695-2.229,3.695c-1.578,0-2.161-0.855-2.161-2.292l0.034-12.692c0-1.677,0.446-2.703,2.333-2.669
			c1.132,0,1.921,1.129,1.921,3.319v1.642H112.292z"/>
		<polygon fill-rule="evenodd" clip-rule="evenodd" fill="#C31924" points="120.955,76.449 120.955,70.12 122.292,67.52 
			125.62,76.449 131.999,76.449 126.168,62.114 131.656,50.791 125.482,50.791 121.023,61.054 120.955,61.054 120.955,50.791 
			114.918,50.791 114.918,76.449 		"/>
		<polygon fill-rule="evenodd" clip-rule="evenodd" fill="#C31924" points="139.633,76.449 139.633,65.775 143.817,65.775 
			143.817,76.449 149.854,76.449 149.854,50.791 143.817,50.791 143.817,60.644 139.633,60.644 139.633,50.791 133.597,50.791 
			133.597,76.449 		"/>
		<path fill-rule="evenodd" clip-rule="evenodd" fill="#C31924" d="M162.667,68.786c0,1.471-0.137,3.661-2.092,3.661
			s-2.195-2.189-2.195-3.661V58.249c0-1.574,0.24-3.456,2.161-3.456c1.989,0,2.126,1.882,2.126,3.456V68.786z M168.704,57.838
			c0-4.926-2.847-7.663-8.129-7.663s-8.232,2.737-8.232,7.663v10.435c0,5.782,2.127,8.792,8.232,8.792s8.129-3.01,8.129-8.792
			V57.838z"/>
		<polygon fill-rule="evenodd" clip-rule="evenodd" fill="#C31924" points="177.47,76.449 177.47,65.604 184.981,65.604 
			184.981,60.472 177.47,60.472 177.47,55.922 185.633,55.922 185.633,50.791 171.434,50.791 171.434,76.449 		"/>
		<polygon fill-rule="evenodd" clip-rule="evenodd" fill="#C31924" points="194.356,76.449 194.356,65.604 201.867,65.604 
			201.867,60.472 194.356,60.472 194.356,55.922 202.519,55.922 202.519,50.791 188.319,50.791 188.319,76.449 		"/>
	</g>
</g>
<g id="Hilfslinien" display="none">
</g>
</svg>
