<?xml version="1.0" encoding="utf-8"?>
<!-- Generator: Adobe Illustrator 14.0.0, SVG Export Plug-In . SVG Version: 6.00 Build 43363)  -->
<!DOCTYPE svg PUBLIC "-//W3C//DTD SVG 1.1//EN" "http://www.w3.org/Graphics/SVG/1.1/DTD/svg11.dtd">
<svg version="1.1" id="Ebene_1" xmlns="http://www.w3.org/2000/svg" xmlns:xlink="http://www.w3.org/1999/xlink" x="0px" y="0px"
	 viewBox="-80 60 1400 700" enable-background="new 0 0 1191 842" xml:space="preserve">
<g>
	<path d="M728.658,467.978c-18.326,47.894-64.72,81.901-119.059,81.901c-54.336,0-100.729-34.006-119.058-81.897v73.522h-51.023
		l-102.047-144.57V541.5H82.366l-0.004-238.109h178.583v51.023H133.386v42.52h127.555v51.014H133.398v42.529h153.058V303.391h51.024
		c102.051,144.565,102.043,144.565,102.043,144.565V303.391h51.019v73.519c18.328-47.891,64.721-81.898,119.058-81.898
		c35.208,0,67.08,14.278,90.144,37.358l-36.062,35.862c-13.852-13.819-32.969-22.363-54.082-22.363
		c-42.292,0-76.576,34.284-76.576,76.577c0,42.294,34.283,76.577,76.576,76.577c33.349,0,61.717-21.316,72.225-51.066h-72.197
		v-51.021l119.027-0.001v-93.543h178.584v51.023H779.68v42.52h127.555v51.014H779.691v42.529h153.058V303.391h51.023v187.09h152.981
		l0.09,51.02H728.658V467.978z"/>
</g>
</svg>
