<?xml version="1.0" encoding="UTF-8" standalone="no"?>
<!-- Generator: Adobe Illustrator 14.0.0, SVG Export Plug-In . SVG Version: 6.00 Build 43363)  -->

<svg
   xmlns:dc="http://purl.org/dc/elements/1.1/"
   xmlns:cc="http://creativecommons.org/ns#"
   xmlns:rdf="http://www.w3.org/1999/02/22-rdf-syntax-ns#"
   xmlns:svg="http://www.w3.org/2000/svg"
   xmlns="http://www.w3.org/2000/svg"
   xmlns:sodipodi="http://sodipodi.sourceforge.net/DTD/sodipodi-0.dtd"
   xmlns:inkscape="http://www.inkscape.org/namespaces/inkscape"
   version="1.1"
   id="Ebene_1"
   x="0px"
   y="0px"
   viewBox="-110 0 1357 323"
   enable-background="new 0 0 1191 842"
   xml:space="preserve"
   sodipodi:docname="ENGEL_Logo.svg"
   
   inkscape:version="0.92.0 r15299"><metadata
     id="metadata4494"><rdf:RDF><cc:Work
         rdf:about=""><dc:format>image/svg+xml</dc:format><dc:type
           rdf:resource="http://purl.org/dc/dcmitype/StillImage" /><dc:title></dc:title></cc:Work></rdf:RDF></metadata><defs
     id="defs4492" /><sodipodi:namedview
     pagecolor="#ffffff"
     bordercolor="#666666"
     borderopacity="1"
     objecttolerance="10"
     gridtolerance="10"
     guidetolerance="10"
     inkscape:pageopacity="0"
     inkscape:pageshadow="2"
     inkscape:window-width="1920"
     inkscape:window-height="1177"
     id="namedview4490"
     showgrid="false"
     fit-margin-top="10"
     fit-margin-left="50"
     fit-margin-right="50"
     fit-margin-bottom="10"
     inkscape:zoom="0.54575987"
     inkscape:cx="563.138"
     inkscape:cy="138.87899"
     inkscape:window-x="-4"
     inkscape:window-y="-4"
     inkscape:window-maximized="1"
     inkscape:current-layer="Ebene_1" /><g
     id="g4487"
     transform="translate(-32.362,-285.012)"><path
       d="m 728.658,467.978 c -18.326,47.894 -64.72,81.901 -119.059,81.901 -54.336,0 -100.729,-34.006 -119.058,-81.897 v 73.522 H 439.518 L 337.471,396.934 V 541.5 H 82.366 L 82.362,303.391 h 178.583 v 51.023 H 133.386 v 42.52 h 127.555 v 51.014 H 133.398 v 42.529 H 286.456 V 303.391 H 337.48 C 439.531,447.956 439.523,447.956 439.523,447.956 V 303.391 h 51.019 v 73.519 c 18.328,-47.891 64.721,-81.898 119.058,-81.898 35.208,0 67.08,14.278 90.144,37.358 l -36.062,35.862 C 649.83,354.413 630.713,345.869 609.6,345.869 c -42.292,0 -76.576,34.284 -76.576,76.577 0,42.294 34.283,76.577 76.576,76.577 33.349,0 61.717,-21.316 72.225,-51.066 h -72.197 v -51.021 l 119.027,-10e-4 v -93.543 h 178.584 v 51.023 H 779.68 v 42.52 h 127.555 v 51.014 H 779.691 v 42.529 H 932.749 V 303.391 h 51.023 v 187.09 h 152.981 l 0.09,51.02 H 728.658 Z"
       id="path4485"
       inkscape:connector-curvature="0" /></g></svg>