<?xml version="1.0" encoding="UTF-8" standalone="no"?>
<!-- Generator: Adobe Illustrator 15.1.0, SVG Export Plug-In . SVG Version: 6.00 Build 0)  -->

<svg
   xmlns:dc="http://purl.org/dc/elements/1.1/"
   xmlns:cc="http://creativecommons.org/ns#"
   xmlns:rdf="http://www.w3.org/1999/02/22-rdf-syntax-ns#"
   xmlns:svg="http://www.w3.org/2000/svg"
   xmlns="http://www.w3.org/2000/svg"
   xmlns:xlink="http://www.w3.org/1999/xlink"
   xmlns:sodipodi="http://sodipodi.sourceforge.net/DTD/sodipodi-0.dtd"
   xmlns:inkscape="http://www.inkscape.org/namespaces/inkscape"
   version="1.1"
   id="Ebene_1"
   x="0px"
   y="0px"
   viewBox="30 -10 550 120"
   
   xml:space="preserve"
   sodipodi:docname="KEBALogo.svg"
   inkscape:version="0.92.1 r15371"><metadata
     id="metadata133"><rdf:RDF><cc:Work
         rdf:about=""><dc:format>image/svg+xml</dc:format><dc:type
           rdf:resource="http://purl.org/dc/dcmitype/StillImage" /><dc:title></dc:title></cc:Work></rdf:RDF></metadata><defs
     id="defs131" /><sodipodi:namedview
     pagecolor="#ffffff"
     bordercolor="#666666"
     borderopacity="1"
     objecttolerance="10"
     gridtolerance="10"
     guidetolerance="10"
     inkscape:pageopacity="0"
     inkscape:pageshadow="2"
     inkscape:window-width="1920"
     inkscape:window-height="1061"
     id="namedview129"
     showgrid="false"
     units="mm"
     fit-margin-top="2"
     fit-margin-left="2"
     fit-margin-right="2"
     fit-margin-bottom="2"
     inkscape:zoom="0.56066789"
     inkscape:cx="-173.86659"
     inkscape:cy="40.721746"
     inkscape:window-x="-4"
     inkscape:window-y="-4"
     inkscape:window-maximized="1"
     inkscape:current-layer="Ebene_1" /><g
     id="g126"
     transform="translate(-156.89894,-225.02595)"><polygon
       points="384.937,310.334 410.772,234.076 382.958,234.076 356.992,310.334 "
       id="polygon2"
       style="fill:#52ae32" /><polygon
       points="452.682,250.13 458.146,234.076 418.489,234.076 413.009,250.13 "
       id="polygon4"
       style="fill:#848d91" /><polygon
       points="432.549,310.334 438.016,294.279 397.942,294.279 392.458,310.334 "
       id="polygon6"
       style="fill:#848d91" /><polygon
       points="440.133,280.229 445.602,264.179 408.192,264.179 402.759,280.229 "
       id="polygon8"
       style="fill:#848d91" /><polygon
       points="271.128,234.076 245.163,310.333 273.108,310.333 298.943,234.076 "
       id="polygon10"
       style="fill:#52ae32" /><polygon
       points="292.593,270.618 306.395,310.334 331.157,310.334 316.123,270.793 353.662,234.076 330.064,234.076 "
       id="polygon12"
       style="fill:#848d91" /><polygon
       points="495.221,310.334 521.057,234.076 493.242,234.076 467.275,310.334 "
       id="polygon14"
       style="fill:#52ae32" /><g
       id="g24"><defs
         id="defs17"><rect
           id="SVGID_1_"
           x="164.45799"
           y="232.58501"
           width="512.974"
           height="130.11" />
       </defs><clipPath
         id="SVGID_2_"><use
           xlink:href="#SVGID_1_"
           overflow="visible"
           id="use19"
           style="overflow:visible"
           x="0"
           y="0"
           width="100%"
           height="100%" /></clipPath><path
         clip-path="url(#SVGID_2_)"
         d="m 513.496,278.436 h 8.232 c 9.641,0 15.602,3.999 13.441,10.337 -2.154,6.336 -10.057,8.041 -19.699,8.041 h -8.268 l -4.562,13.52 h 20.898 c 14.328,0 19.223,-1.692 24.979,-5.915 3.906,-2.852 7.738,-7.749 9.539,-13.731 2.688,-8.906 -2.863,-17.405 -11.93,-18.905 l 0.072,-0.212 c 9.555,-2.43 17.434,-6.854 19.232,-17.636 1.896,-11.358 -9.332,-19.857 -22.359,-19.857 h -14.648 l -4.646,14.153 h 8.143 c 8.727,0 13.182,4.105 11.346,9.49 -1.725,5.069 -8.854,7.197 -16.934,7.197 h -8.268 z"
         id="path22"
         inkscape:connector-curvature="0"
         style="fill:#848d91" /></g><polygon
       points="605.172,234.076 579.205,310.333 607.152,310.333 632.986,234.076 "
       id="polygon26"
       style="fill:#52ae32" /><g
       id="g36"><defs
         id="defs29"><rect
           id="SVGID_3_"
           x="164.45799"
           y="232.58501"
           width="512.974"
           height="130.11" /></defs><clipPath
         id="SVGID_4_"><use
           xlink:href="#SVGID_3_"
           overflow="visible"
           id="use31"
           style="overflow:visible"
           x="0"
           y="0"
           width="100%"
           height="100%" /></clipPath><path
         clip-path="url(#SVGID_4_)"
         d="m 658.312,238.342 c 0,3.327 2.627,5.818 5.756,5.818 3.115,0 5.727,-2.491 5.727,-5.818 0,-3.266 -2.611,-5.757 -5.727,-5.757 -3.129,0 -5.756,2.491 -5.756,5.757 m 1.04,0 c 0,-2.77 2.045,-4.902 4.717,-4.902 2.643,0 4.688,2.133 4.688,4.902 0,2.83 -2.045,4.968 -4.688,4.968 -2.673,0 -4.717,-2.138 -4.717,-4.968 m 2.49,3.404 h 1.037 v -2.908 h 1.098 l 1.816,2.908 h 1.117 L 665,238.761 c 0.994,-0.11 1.754,-0.62 1.754,-1.843 0,-1.299 -0.744,-1.934 -2.334,-1.934 h -2.578 z m 1.037,-5.913 h 1.375 c 0.699,0 1.465,0.143 1.465,1.038 0,1.067 -0.842,1.115 -1.756,1.115 h -1.084 z"
         id="path34"
         inkscape:connector-curvature="0"
         style="fill:#848d91" /></g><polygon
       points="652.451,310.363 677.432,310.363 649.484,234.106 640.725,234.106 633.844,254.383 642.568,281.001 624.764,281.001 619.236,297.689 648.154,297.689 "
       id="polygon38"
       style="fill:#848d91" /><path
       d="m 174.06,338.33 h 0.059 l 3.47,9.715 h -7.061 z m -1.461,-2.506 -8.141,20.829 h 2.86 l 2.335,-6.27 h 8.813 l 2.274,6.27 h 3.062 l -8.139,-20.829 z"
       id="path40"
       inkscape:connector-curvature="0"
       style="fill:#848d91" /><g
       id="g60"><defs
         id="defs43"><rect
           id="SVGID_5_"
           x="164.45799"
           y="232.58501"
           width="512.974"
           height="130.11" /></defs><clipPath
         id="SVGID_6_"><use
           xlink:href="#SVGID_5_"
           overflow="visible"
           id="use45"
           style="overflow:visible"
           x="0"
           y="0"
           width="100%"
           height="100%" /></clipPath><path
         clip-path="url(#SVGID_6_)"
         d="m 200.596,341.57 h -2.481 v 8.521 c 0,2.715 -1.459,4.729 -4.464,4.729 -1.896,0 -3.062,-1.199 -3.062,-3.036 V 341.57 h -2.482 v 9.922 c 0,3.239 1.226,5.515 5.193,5.515 2.16,0 3.853,-0.876 4.903,-2.745 h 0.06 v 2.392 h 2.333 z"
         id="path48"
         inkscape:connector-curvature="0"
         style="fill:#848d91" /><path
         clip-path="url(#SVGID_6_)"
         d="m 210.44,337.048 h -2.482 v 4.522 h -2.565 v 2.189 h 2.565 v 9.602 c 0,2.769 1.024,3.292 3.591,3.292 h 1.899 v -2.186 h -1.14 c -1.547,0 -1.868,-0.207 -1.868,-1.344 v -9.364 h 3.008 v -2.189 h -3.008 z"
         id="path50"
         inkscape:connector-curvature="0"
         style="fill:#848d91" /><path
         clip-path="url(#SVGID_6_)"
         d="m 218.041,349.128 c 0,4.404 2.539,7.879 7.325,7.879 4.785,0 7.321,-3.475 7.321,-7.879 0,-4.433 -2.536,-7.906 -7.321,-7.906 -4.787,0 -7.325,3.473 -7.325,7.906 m 2.626,0 c 0,-3.676 2.101,-5.722 4.698,-5.722 2.596,0 4.696,2.046 4.696,5.722 0,3.646 -2.1,5.69 -4.696,5.69 -2.596,0 -4.698,-2.045 -4.698,-5.69"
         id="path52"
         inkscape:connector-curvature="0"
         style="fill:#848d91" /><path
         clip-path="url(#SVGID_6_)"
         d="m 238.274,356.653 h 2.479 v -9.395 c 0,-1.135 1.08,-3.853 4.029,-3.853 2.217,0 2.827,1.404 2.827,3.356 v 9.891 h 2.481 v -9.395 c 0,-2.332 1.548,-3.853 3.94,-3.853 2.42,0 2.916,1.491 2.916,3.356 v 9.891 h 2.482 v -11.058 c 0,-3.119 -2.014,-4.375 -5.019,-4.375 -1.926,0 -3.705,0.965 -4.726,2.566 -0.613,-1.836 -2.306,-2.566 -4.142,-2.566 -2.074,0 -3.767,0.876 -4.874,2.566 h -0.06 v -2.217 h -2.333 z"
         id="path54"
         inkscape:connector-curvature="0"
         style="fill:#848d91" /><path
         clip-path="url(#SVGID_6_)"
         d="m 275.165,351.402 c 0,1.371 -1.344,3.417 -4.612,3.417 -1.515,0 -2.919,-0.585 -2.919,-2.217 0,-1.84 1.404,-2.425 3.036,-2.717 1.665,-0.293 3.531,-0.32 4.495,-1.021 z m 4.026,3.27 c -0.321,0.117 -0.554,0.147 -0.759,0.147 -0.788,0 -0.788,-0.525 -0.788,-1.695 v -7.759 c 0,-3.531 -2.949,-4.144 -5.66,-4.144 -3.356,0 -6.246,1.312 -6.391,5.047 h 2.481 c 0.116,-2.218 1.661,-2.862 3.764,-2.862 1.575,0 3.354,0.354 3.354,2.511 0,1.869 -2.333,1.692 -5.076,2.218 -2.566,0.497 -5.107,1.227 -5.107,4.639 0,3.009 2.247,4.232 4.991,4.232 2.1,0 3.939,-0.726 5.311,-2.334 0,1.634 0.815,2.334 2.098,2.334 0.791,0 1.345,-0.146 1.782,-0.407 z"
         id="path56"
         inkscape:connector-curvature="0"
         style="fill:#848d91" /><path
         clip-path="url(#SVGID_6_)"
         d="m 287.604,337.048 h -2.482 v 4.522 h -2.568 v 2.189 h 2.568 v 9.602 c 0,2.769 1.024,3.292 3.589,3.292 h 1.895 v -2.186 h -1.136 c -1.545,0 -1.866,-0.207 -1.866,-1.344 v -9.364 h 3.002 v -2.189 h -3.002 z"
         id="path58"
         inkscape:connector-curvature="0"
         style="fill:#848d91" /></g><path
       d="m 296.166,356.653 h 2.479 V 341.57 h -2.479 z m 2.479,-20.829 h -2.479 v 3.034 h 2.479 z"
       id="path62"
       inkscape:connector-curvature="0"
       style="fill:#848d91" /><g
       id="g78"><defs
         id="defs65"><rect
           id="SVGID_7_"
           x="164.45799"
           y="232.58501"
           width="512.974"
           height="130.11" /></defs><clipPath
         id="SVGID_8_"><use
           xlink:href="#SVGID_7_"
           overflow="visible"
           id="use67"
           style="overflow:visible"
           x="0"
           y="0"
           width="100%"
           height="100%" /></clipPath><path
         clip-path="url(#SVGID_8_)"
         d="m 304.346,349.128 c 0,4.404 2.539,7.879 7.323,7.879 4.785,0 7.324,-3.475 7.324,-7.879 0,-4.433 -2.539,-7.906 -7.324,-7.906 -4.784,0 -7.323,3.473 -7.323,7.906 m 2.625,0 c 0,-3.676 2.101,-5.722 4.698,-5.722 2.598,0 4.699,2.046 4.699,5.722 0,3.646 -2.101,5.69 -4.699,5.69 -2.597,0 -4.698,-2.045 -4.698,-5.69"
         id="path70"
         inkscape:connector-curvature="0"
         style="fill:#848d91" /><path
         clip-path="url(#SVGID_8_)"
         d="m 324.578,356.653 h 2.481 v -8.519 c 0,-2.71 1.461,-4.729 4.464,-4.729 1.898,0 3.065,1.2 3.065,3.036 v 10.211 h 2.481 v -9.917 c 0,-3.24 -1.228,-5.516 -5.195,-5.516 -2.16,0 -3.851,0.876 -4.901,2.743 h -0.057 v -2.394 h -2.338 z"
         id="path72"
         inkscape:connector-curvature="0"
         style="fill:#848d91" /><path
         clip-path="url(#SVGID_8_)"
         d="m 366.003,348.981 c 0,2.948 -1.137,5.838 -4.523,5.838 -3.41,0 -4.755,-2.745 -4.755,-5.725 0,-2.826 1.283,-5.688 4.612,-5.688 3.208,0 4.666,2.745 4.666,5.575 m -11.668,7.672 h 2.479 v -2.011 h 0.059 c 1.108,1.779 3.325,2.363 4.872,2.363 4.612,0 6.886,-3.591 6.886,-7.851 0,-4.258 -2.306,-7.935 -6.945,-7.935 -2.069,0 -3.997,0.73 -4.813,2.393 h -0.059 v -7.789 h -2.479 z"
         id="path74"
         inkscape:connector-curvature="0"
         style="fill:#848d91" /><path
         clip-path="url(#SVGID_8_)"
         d="m 386.7,341.57 h -2.623 l -4.233,12.343 h -0.057 L 375.38,341.57 h -2.8 l 5.981,14.999 -1.021,2.567 c -0.467,0.873 -1.021,1.371 -2.044,1.371 -0.494,0 -0.991,-0.204 -1.458,-0.351 v 2.274 c 0.556,0.206 1.137,0.264 1.723,0.264 2.217,0 3.238,-1.08 4.374,-4.026 z"
         id="path76"
         inkscape:connector-curvature="0"
         style="fill:#848d91" /></g><path
       d="m 402.396,356.653 h 2.481 V 341.57 h -2.481 z m 2.481,-20.829 h -2.481 v 3.034 h 2.481 z"
       id="path80"
       inkscape:connector-curvature="0"
       style="fill:#848d91" /><g
       id="g94"><defs
         id="defs83"><rect
           id="SVGID_9_"
           x="164.45799"
           y="232.58501"
           width="512.974"
           height="130.11" /></defs><clipPath
         id="SVGID_10_"><use
           xlink:href="#SVGID_9_"
           overflow="visible"
           id="use85"
           style="overflow:visible"
           x="0"
           y="0"
           width="100%"
           height="100%" /></clipPath><path
         clip-path="url(#SVGID_10_)"
         d="m 411.395,356.653 h 2.479 v -8.519 c 0,-2.71 1.458,-4.729 4.463,-4.729 1.896,0 3.065,1.2 3.065,3.036 v 10.211 h 2.479 v -9.917 c 0,-3.24 -1.227,-5.516 -5.193,-5.516 -2.16,0 -3.853,0.876 -4.903,2.743 h -0.057 v -2.394 h -2.333 z"
         id="path88"
         inkscape:connector-curvature="0"
         style="fill:#848d91" /><path
         clip-path="url(#SVGID_10_)"
         d="m 430.281,356.653 h 2.48 v -8.519 c 0,-2.71 1.461,-4.729 4.467,-4.729 1.896,0 3.062,1.2 3.062,3.036 v 10.211 h 2.48 v -9.917 c 0,-3.24 -1.225,-5.516 -5.193,-5.516 -2.16,0 -3.854,0.876 -4.904,2.743 h -0.057 v -2.394 h -2.336 v 15.085 z"
         id="path90"
         inkscape:connector-curvature="0"
         style="fill:#848d91" /><path
         clip-path="url(#SVGID_10_)"
         d="m 448.354,349.128 c 0,4.404 2.539,7.879 7.326,7.879 4.785,0 7.322,-3.475 7.322,-7.879 0,-4.433 -2.537,-7.906 -7.322,-7.906 -4.787,0 -7.326,3.473 -7.326,7.906 m 2.628,0 c 0,-3.676 2.1,-5.722 4.697,-5.722 2.596,0 4.695,2.046 4.695,5.722 0,3.646 -2.1,5.69 -4.695,5.69 -2.597,0 -4.697,-2.045 -4.697,-5.69"
         id="path92"
         inkscape:connector-curvature="0"
         style="fill:#848d91" /></g><polygon
       points="467.129,341.57 472.73,356.653 475.385,356.653 480.902,341.57 478.305,341.57 474.191,354.145 474.135,354.145 469.9,341.57 "
       id="polygon96"
       style="fill:#848d91" /><g
       id="g108"><defs
         id="defs99"><rect
           id="SVGID_11_"
           x="164.45799"
           y="232.58501"
           width="512.974"
           height="130.11" /></defs><clipPath
         id="SVGID_12_"><use
           xlink:href="#SVGID_11_"
           overflow="visible"
           id="use101"
           style="overflow:visible"
           x="0"
           y="0"
           width="100%"
           height="100%" /></clipPath><path
         clip-path="url(#SVGID_12_)"
         d="m 495.188,351.402 c 0,1.371 -1.346,3.417 -4.609,3.417 -1.521,0 -2.92,-0.585 -2.92,-2.217 0,-1.84 1.398,-2.425 3.035,-2.717 1.662,-0.293 3.529,-0.32 4.494,-1.021 z m 4.023,3.27 c -0.32,0.117 -0.555,0.147 -0.758,0.147 -0.787,0 -0.787,-0.525 -0.787,-1.695 v -7.759 c 0,-3.531 -2.947,-4.144 -5.66,-4.144 -3.355,0 -6.244,1.312 -6.389,5.047 h 2.479 c 0.117,-2.218 1.664,-2.862 3.764,-2.862 1.578,0 3.357,0.354 3.357,2.511 0,1.869 -2.336,1.692 -5.08,2.218 -2.566,0.497 -5.105,1.227 -5.105,4.639 0,3.009 2.246,4.232 4.99,4.232 2.102,0 3.939,-0.726 5.311,-2.334 0,1.634 0.816,2.334 2.102,2.334 0.787,0 1.342,-0.146 1.777,-0.407 v -1.927 z"
         id="path104"
         inkscape:connector-curvature="0"
         style="fill:#848d91" /><path
         clip-path="url(#SVGID_12_)"
         d="m 507.627,337.048 h -2.48 v 4.522 h -2.568 v 2.189 h 2.568 v 9.602 c 0,2.769 1.02,3.292 3.588,3.292 h 1.896 v -2.186 h -1.139 c -1.547,0 -1.865,-0.207 -1.865,-1.344 v -9.364 h 3.004 v -2.189 h -3.004 z"
         id="path106"
         inkscape:connector-curvature="0"
         style="fill:#848d91" /></g><path
       d="m 516.188,356.653 h 2.482 V 341.57 h -2.482 z m 2.48,-20.829 h -2.482 v 3.034 h 2.482 z"
       id="path110"
       inkscape:connector-curvature="0"
       style="fill:#848d91" /><g
       id="g122"><defs
         id="defs113"><rect
           id="SVGID_13_"
           x="164.45799"
           y="232.58501"
           width="512.974"
           height="130.11" /></defs><clipPath
         id="SVGID_14_"><use
           xlink:href="#SVGID_13_"
           overflow="visible"
           id="use115"
           style="overflow:visible"
           x="0"
           y="0"
           width="100%"
           height="100%" /></clipPath><path
         clip-path="url(#SVGID_14_)"
         d="m 524.369,349.128 c 0,4.404 2.537,7.879 7.322,7.879 4.787,0 7.326,-3.475 7.326,-7.879 0,-4.433 -2.539,-7.906 -7.326,-7.906 -4.785,0 -7.322,3.473 -7.322,7.906 m 2.627,0 c 0,-3.676 2.1,-5.722 4.695,-5.722 2.598,0 4.697,2.046 4.697,5.722 0,3.646 -2.1,5.69 -4.697,5.69 -2.595,0 -4.695,-2.045 -4.695,-5.69"
         id="path118"
         inkscape:connector-curvature="0"
         style="fill:#848d91" /><path
         clip-path="url(#SVGID_14_)"
         d="m 544.604,356.653 h 2.479 v -8.519 c 0,-2.71 1.457,-4.729 4.465,-4.729 1.896,0 3.062,1.2 3.062,3.036 v 10.211 h 2.479 v -9.917 c 0,-3.24 -1.223,-5.516 -5.191,-5.516 -2.158,0 -3.854,0.876 -4.902,2.743 h -0.059 v -2.394 h -2.332 v 15.085 z"
         id="path120"
         inkscape:connector-curvature="0"
         style="fill:#848d91" /></g><rect
       x="564.047"
       y="353.41501"
       width="3.24"
       height="3.2379999"
       id="rect124"
       style="fill:#848d91" /></g></svg>