<?xml version="1.0" encoding="utf-8"?>
<!-- Generator: Adobe Illustrator 22.0.1, SVG Export Plug-In . SVG Version: 6.00 Build 0)  -->
<svg version="1.1" id="Ebene_1" xmlns="http://www.w3.org/2000/svg" xmlns:xlink="http://www.w3.org/1999/xlink" x="0px" y="0px"
	 viewBox="24 0 185 90" style="enable-background:new 0 0 476 90;" xml:space="preserve">
<style type="text/css">
	.Grx00BC_n_x0020_bogenfx00B6_rmig{fill:url(#SVGID_1_);stroke:#FFFFFF;stroke-width:0.25;stroke-miterlimit:1;}
	.st0{fill:#0080C9;}
	.st1{fill-rule:evenodd;clip-rule:evenodd;fill:#0080C9;}
	.st2{fill:none;}
</style>
<linearGradient id="SVGID_1_" gradientUnits="userSpaceOnUse" x1="0" y1="90.709" x2="0.7071" y2="90.0019">
	<stop  offset="0" style="stop-color:#1DA238"/>
	<stop  offset="0.9831" style="stop-color:#24391D"/>
</linearGradient>
<g>
	<path class="st0" d="M62.7,40.6c0.2,0,0.4,0,0.5,0l-0.8,3.8c-0.5-0.2-1-0.3-1.4-0.3c-1.5,0-2.9,1.2-3.2,3l-1.9,9.5h-3.8l3.1-15.7
		h3.7l-0.3,1.4C59.5,41.2,61,40.6,62.7,40.6z"/>
	<path class="st0" d="M93.2,40.9l-3.1,15.7h-3.7l0.2-1.4c-1,1.1-2.7,1.7-4.4,1.7c-1.9,0-4.1-1.3-4.1-4.5c0-0.6,0.1-1.2,0.2-1.8
		l2-9.8h3.8l-1.9,9.6c-0.1,0.3-0.1,0.7-0.1,1c0,1.4,1,2,1.9,2c1.1,0,2.9-0.6,3.4-3.1l1.9-9.5H93.2z"/>
	<path class="st0" d="M120.8,41.5l-0.6,3.2c-0.5-0.3-2-1-4.2-1c-1.9,0-2.9,0.9-2.9,1.9c0,0.7,0.5,1,1.5,1.2l2.1,0.3
		c2.9,0.5,3.9,1.9,3.9,4.1c0,1.6-0.7,2.9-1.7,3.9c-1.3,1.3-3.3,1.8-5.4,1.8c-2,0-4.4-0.8-5.4-1.5l0.7-3.6c0.8,0.7,2.9,1.8,4.9,1.8
		c2.2,0,3.1-1,3.1-2c0-0.9-0.6-1.2-1.5-1.3l-2.1-0.3c-2.9-0.5-3.8-2.1-3.8-3.6c0-1.5,0.6-2.9,1.6-4c1.2-1.2,3-1.8,5.3-1.8
		C117.9,40.6,119.7,41,120.8,41.5z"/>
	<path class="st0" d="M202.2,34.3c-1.3,0-2.3,1-2.4,2.3c0,1.3,0.9,2.3,2.2,2.3c1.3,0,2.3-1,2.4-2.3
		C204.4,35.3,203.4,34.3,202.2,34.3z"/>
	<path class="st1" d="M194.6,50c0.3-1.3,0.5-2.7,0.5-3.7c0-3.5-2.3-5.8-5.7-5.8c-5.5,0-8.2,5.4-8.2,10.8c0,4.2,3.1,5.7,6.2,5.7
		c2.4,0,4.2-0.5,5.5-1l0.7-3.5c-0.7,0.4-2.6,1.3-5.6,1.3c-2.3,0-3.2-1.2-3.2-2.7c0-0.4,0.1-0.7,0.1-1L194.6,50z M189.2,43.7
		c1.4,0,2.3,1,2.3,2.6c0,0.3,0,0.7-0.1,1h-5.9C186.2,44.7,187.6,43.7,189.2,43.7z"/>
	<polygon class="st1" points="203.1,41.1 200,56.6 196.2,56.6 199.3,41.1 	"/>
	<path class="st1" d="M155.6,40.6c-2.5,0-4.3,0.4-4.8,0.6l-0.7,3.4c1-0.4,2.8-0.8,4.9-0.8c1.7,0,2.5,0.6,2.5,1.7
		c0,0.3,0,0.6-0.1,0.8l-0.1,0.5h-4c-3.4,0-6.2,2.3-6.2,5.9c0,2.4,2,4.2,4.8,4.2c1.8,0,3-0.7,3.9-1.6l-0.2,1.3h3.7l2-10.2
		c0.1-0.4,0.2-1,0.2-1.4C161.2,41.6,158.3,40.6,155.6,40.6z M156.4,50.8c-0.2,0.8-0.5,1.5-1,2c-0.6,0.6-1.4,1-2.5,1
		c-1.4,0-2.2-0.9-2.2-1.8c0-1.4,1.1-2.5,2.8-2.5h3.1L156.4,50.8z"/>
	<path class="st0" d="M106.8,41.5l-0.6,3.2c-0.5-0.3-2-1-4.2-1c-1.9,0-2.9,0.9-2.9,1.9c0,0.7,0.5,1,1.5,1.2l2.1,0.3
		c2.9,0.5,3.9,1.9,3.9,4.1c0,1.6-0.7,2.9-1.7,3.9c-1.3,1.3-3.3,1.8-5.4,1.8c-2.1,0-4.4-0.8-5.4-1.5l0.7-3.6c0.8,0.7,2.9,1.8,4.9,1.8
		c2.2,0,3.1-1,3.1-2c0-0.9-0.6-1.2-1.5-1.3L99.1,50c-2.9-0.5-3.8-2.1-3.8-3.6c0-1.5,0.6-2.9,1.6-4c1.2-1.2,3-1.8,5.3-1.8
		C103.8,40.6,105.7,41,106.8,41.5z"/>
	<path class="st0" d="M164.4,41.2h1.8l0.4-2c0.6-2.8,2.3-4.4,5.2-4.4h2.2l-0.6,3.2H172c-0.9,0-1.5,0.5-1.8,1.6l-0.3,1.6h5.2l0.4-2
		c0.6-2.8,2.3-4.4,5.2-4.4h2.2l-0.6,3.2h-1.3c-0.9,0-1.5,0.5-1.8,1.6l-0.3,1.6h2.8l-0.6,2.9h-2.8l-2.5,12.4h-3.8l2.5-12.4h-5.2
		l-2.5,12.4h-3.8l2.5-12.4h-1.8L164.4,41.2z"/>
	<path class="st1" d="M70.5,40.6c-2.5,0-4.3,0.4-4.8,0.6l-0.7,3.4c1-0.4,2.8-0.8,4.9-0.8c1.7,0,2.5,0.6,2.5,1.7c0,0.3,0,0.6-0.1,0.8
		l-0.1,0.5h-4c-3.4,0-6.2,2.3-6.2,5.9c0,2.4,2,4.2,4.8,4.2c1.8,0,3-0.7,3.9-1.6l-0.2,1.3h3.7l2-10.2c0.1-0.4,0.2-1,0.2-1.4
		C76.1,41.6,73.1,40.6,70.5,40.6z M71.3,50.8c-0.2,0.8-0.5,1.5-1,2c-0.6,0.6-1.4,1-2.5,1c-1.4,0-2.2-0.9-2.2-1.8
		c0-1.4,1.1-2.5,2.8-2.5h3.1L71.3,50.8z"/>
	<polygon class="st0" points="40.9,44.1 49.8,34.9 55,34.9 46.2,43.6 51.1,56.6 46.5,56.6 43.1,46.6 39.7,49.9 38.3,56.6 34.3,56.6 
		38.6,34.9 42.7,34.9 	"/>
	<polygon class="st0" points="129.1,34.9 132.8,34.9 135.9,46.6 143.9,34.9 147.7,34.9 143.4,56.6 139.4,56.6 142,43.8 136.5,51.9 
		133.8,51.9 131.3,43.8 128.7,56.6 124.7,56.6 	"/>
</g>
<rect y="0" class="st2" width="238.1" height="90.7"/>
</svg>
