<?xml version="1.0" encoding="utf-8"?>
<!-- Generator: Adobe Illustrator 19.2.1, SVG Export Plug-In . SVG Version: 6.00 Build 0)  -->
<svg version="1.1" id="Ebene_1" xmlns="http://www.w3.org/2000/svg" xmlns:xlink="http://www.w3.org/1999/xlink" x="0px" y="0px"
	 viewBox="0 0 290 111" style="enable-background:new 0 0 290 111;" xml:space="preserve">
<style type="text/css">
	.st0{fill:url(#SVGID_1_);}
</style>
<title>KUKA-Logo-Orange-Gradient-RGB-37x216-SZ</title>
<linearGradient id="SVGID_1_" gradientUnits="userSpaceOnUse" x1="74.3312" y1="-74.1167" x2="269.0412" y2="-38.0267" gradientTransform="matrix(1 0 0 -1 -37 1)">
	<stop  offset="0" style="stop-color:#FF6000"/>
	<stop  offset="1" style="stop-color:#FF5800"/>
</linearGradient>
<path class="st0" d="M48.6,73.3H37V37h11.6V73.3z M86.1,73.3L63.7,54.9L86.1,37H69.7L48.6,54.9l21.1,18.5
	C69.7,73.3,86.1,73.3,86.1,73.3z M138.9,60.7V37h-11.6v21.5c0,4.6-1.7,6-6.5,6h-11.5c-4.8,0-6.5-1.4-6.5-6V37H91.2v23.7
	c0,9,4.9,13.3,15.5,13.3h16.6C134.1,74,138.9,69.7,138.9,60.7L138.9,60.7z M159.6,73.3H148V37h11.6L159.6,73.3L159.6,73.3z
	 M197.2,73.3l-22.4-18.5L197.2,37h-16.4l-21.2,17.9l21.1,18.5L197.2,73.3L197.2,73.3z M230.2,37H220l-22.8,36.3h13.3l3.8-6.3h21.5
	l3.8,6.3H253L230.2,37z M218.3,59.8l6.8-11.6l6.8,11.6C231.8,59.8,218.3,59.8,218.3,59.8z"/>
</svg>
