<?xml version="1.0" encoding="UTF-8" standalone="no"?>
<svg
   xmlns:dc="http://purl.org/dc/elements/1.1/"
   xmlns:cc="http://creativecommons.org/ns#"
   xmlns:rdf="http://www.w3.org/1999/02/22-rdf-syntax-ns#"
   xmlns:svg="http://www.w3.org/2000/svg"
   xmlns="http://www.w3.org/2000/svg"
   viewBox="-40 20 650 180"
   
   xml:space="preserve"
   id="svg2"
   version="1.1"><metadata
     id="metadata8"><rdf:RDF><cc:Work
         rdf:about=""><dc:format>image/svg+xml</dc:format><dc:type
           rdf:resource="http://purl.org/dc/dcmitype/StillImage" /></cc:Work></rdf:RDF></metadata><defs
     id="defs6" /><g
     transform="matrix(1.2,0,0,-1.2,0,180)"
     id="g10"><g
       transform="scale(0.1)"
       id="g12"><path
         id="path14"
         style="fill:#ed1c24;fill-opacity:1;fill-rule:nonzero;stroke:none"
         d="M 564.285,104.25 H 71.4648 L 317.898,531.047 H 810.676 L 564.285,104.25" /><path
         id="path16"
         style="fill:#ed1c24;fill-opacity:1;fill-rule:nonzero;stroke:none"
         d="m 1057.09,104.25 h 492.82 L 1303.5,531.047 H 810.676 L 1057.09,104.25" /><path
         id="path18"
         style="fill:#ed1c24;fill-opacity:1;fill-rule:nonzero;stroke:none"
         d="M 1057.09,957.805 810.676,1384.62 564.285,957.805 810.676,531.047 1057.09,957.805" /><path
         id="path20"
         style="fill:#000000;fill-opacity:1;fill-rule:nonzero;stroke:none"
         d="m 1771.14,285.938 h 197.4 v 71.574 h -197.4 v 88.054 h 222.06 v 71.602 h -222.06 -83.61 V 445.566 175.852 104.25 h 83.61 227.88 v 71.602 h -227.88 v 110.086" /><path
         id="path22"
         style="fill:#000000;fill-opacity:1;fill-rule:nonzero;stroke:none"
         d="m 1765.4,892.891 87.7,-306.907 h 80.35 l 87.7,306.907 V 585.984 h 77.88 v 412.825 h -42.48 -36.73 -40.14 l -86.41,-289.766 -86.39,289.766 h -40.12 -36.73 -42.5 V 585.984 h 77.87 v 306.907" /><path
         id="path24"
         style="fill:#000000;fill-opacity:1;fill-rule:nonzero;stroke:none"
         d="M 3665.98,998.809 H 3582.8 V 585.984 h 83.18 v 412.825" /><path
         id="path26"
         style="fill:#000000;fill-opacity:1;fill-rule:nonzero;stroke:none"
         d="m 3733.7,517.168 h -83.1 V 104.25 h 83.1 v 412.918" /><path
         id="path28"
         style="fill:#000000;fill-opacity:1;fill-rule:nonzero;stroke:none"
         d="m 4488.52,998.809 h -83.17 V 585.984 h 83.17 v 412.825" /><path
         id="path30"
         style="fill:#000000;fill-opacity:1;fill-rule:nonzero;stroke:none"
         d="M 2215.33,998.809 H 2132.2 V 585.984 h 83.13 v 412.825" /><path
         id="path32"
         style="fill:#000000;fill-opacity:1;fill-rule:nonzero;stroke:none"
         d="m 4289.16,837.813 h -165.3 v 160.996 h -81.85 V 585.984 h 81.85 v 180.239 h 165.3 V 585.984 h 81.81 v 412.825 h -81.81 V 837.813" /><path
         id="path34"
         style="fill:#000000;fill-opacity:1;fill-rule:nonzero;stroke:none"
         d="m 2338.36,585.984 h 84.87 v 341.313 h 100.89 v 71.512 h -100.89 -84.87 -100.88 v -71.512 h 100.88 V 585.984" /><path
         id="path36"
         style="fill:#000000;fill-opacity:1;fill-rule:nonzero;stroke:none"
         d="m 3096.9,104.25 h 84.84 v 341.316 h 100.93 v 71.602 H 3181.74 3096.9 2995.98 V 445.566 H 3096.9 V 104.25" /><path
         id="path38"
         style="fill:#000000;fill-opacity:1;fill-rule:nonzero;stroke:none"
         d="m 3040.11,574.484 c 105.91,0 164.7,48.231 164.7,140.411 v 283.914 h -83.15 V 707.363 c 0,-35.508 -29.93,-65.168 -81.55,-65.168 -62.53,0 -80.92,35.012 -80.92,65.168 v 291.446 h -81.83 V 714.895 c 0,-99.231 61.62,-140.411 162.75,-140.411" /><path
         id="path40"
         style="fill:#000000;fill-opacity:1;fill-rule:nonzero;stroke:none"
         d="m 2411.53,285.938 h 197.45 v 71.574 h -197.45 v 88.054 h 222.13 v 71.602 h -222.13 -83.55 v 0 -71.602 0 -269.714 0 -71.602 0 h 83.55 227.93 v 71.602 h -227.93 v 110.086" /><path
         id="path42"
         style="fill:#000000;fill-opacity:1;fill-rule:nonzero;stroke:none"
         d="m 3320.04,585.984 h 119.2 c 77.62,0 123.94,46.457 123.94,111.477 0,52.519 -38.09,97.617 -79.57,107.98 36.23,9.2 65.45,46.258 65.45,91.805 0,60.879 -45.02,101.563 -128.71,101.563 h -100.31 -85.44 -0.38 V 585.984 h 0.38 z m 94.34,62.407 h -97.59 v 119.734 h 96.58 c 34.76,0 64.15,-19.973 64.15,-60.02 0,-33.855 -26.67,-59.714 -63.14,-59.714 z m 6.13,284.843 c 22.69,0 48.12,-21.078 48.12,-48.91 0,-24.695 -17.78,-51.969 -52.79,-51.969 h -99.05 v 100.879 h 103.72" /><path
         id="path44"
         style="fill:#000000;fill-opacity:1;fill-rule:nonzero;stroke:none"
         d="m 3552.45,302.473 c 35.42,10.652 73.39,42.429 73.39,99.734 0,73.43 -49.71,115.527 -134.32,115.527 h -104.82 -82.82 -0.81 V 104.863 h 83.63 v 162.676 h 70.96 c 42.95,0 66.36,-22.297 73.39,-51.672 7.7,-32.488 5.74,-80.816 14,-111.004 h 84.11 c -8.19,31.614 -13.01,74.571 -14.84,108.504 -3.03,55.883 -32.41,78.242 -61.87,89.106 z M 3386.7,333.777 V 446.16 h 100.68 c 33.97,0 56.62,-23.855 56.62,-56.433 0,-22.95 -20.11,-55.95 -54.16,-55.95 H 3386.7" /><path
         id="path46"
         style="fill:#000000;fill-opacity:1;fill-rule:nonzero;stroke:none"
         d="m 2109.51,517.168 h -83.62 V 104.25 h 278.24 v 71.602 h -194.62 v 341.316" /><path
         id="path48"
         style="fill:#000000;fill-opacity:1;fill-rule:nonzero;stroke:none"
         d="m 2663.73,760.461 c 67,-11.672 105.14,-24.074 105.14,-64.063 0,-27.082 -26.81,-52.765 -82.43,-52.765 -55.58,0 -84.12,31.609 -84.12,69.121 h -80.16 c 0,-71.809 46.57,-137.395 167.87,-137.395 115.52,0 165.58,61.106 165.58,130.852 0,65.066 -42.58,106.309 -118.9,121.316 -73.27,14.368 -123.56,17.524 -123.56,63.918 0,31.883 29.16,50.762 73.99,50.762 47.66,0 75.04,-23.445 75.04,-63.035 h 80.74 c 0,65.137 -49.29,132.218 -159.08,132.218 -75.73,0 -154.32,-43.656 -154.32,-125.245 0,-68.547 50.38,-111.008 134.21,-125.684" /><path
         id="path50"
         style="fill:#000000;fill-opacity:1;fill-rule:nonzero;stroke:none"
         d="m 3827.71,760.461 c 67.01,-11.672 105.09,-24.074 105.09,-64.063 0,-27.082 -26.75,-52.765 -82.38,-52.765 -55.58,0 -84.13,31.609 -84.13,69.121 h -80.11 c 0,-71.809 46.53,-137.395 167.82,-137.395 115.5,0 165.6,61.106 165.6,130.852 0,65.066 -42.59,106.309 -118.91,121.316 -73.29,14.368 -123.56,17.524 -123.56,63.918 0,31.883 29.16,50.762 74,50.762 47.61,0 75.03,-23.445 75.03,-63.035 h 80.81 c 0,65.137 -49.4,132.218 -159.19,132.218 -75.74,0 -154.28,-43.656 -154.28,-125.245 0,-68.547 50.39,-111.008 134.21,-125.684" /><path
         id="path52"
         style="fill:#000000;fill-opacity:1;fill-rule:nonzero;stroke:none"
         d="m 2827.64,168.027 c -67.22,0 -106.51,65.871 -106.51,144.375 0,78.528 37.89,144.5 106.51,144.5 51.08,0 77.31,-31.765 88.62,-70.64 h 86.61 c -14.19,80.847 -77.4,140.847 -177.56,140.847 -126.31,0 -190.17,-96.648 -190.17,-215.847 0,-119.239 66.46,-215.8714 190.13,-215.8714 99.03,0 165.86,57.5584 178.14,145.7614 h -87.15 c -11.31,-41.511 -38.47,-73.125 -88.62,-73.125" /><path
         id="path54"
         style="fill:#000000;fill-opacity:1;fill-rule:nonzero;stroke:none"
         d="m 3946.52,168.027 c -67.23,0 -106.52,65.871 -106.52,144.375 0,78.528 37.83,144.5 106.52,144.5 51.11,0 77.3,-31.765 88.61,-70.64 h 86.57 c -14.2,80.847 -77.34,140.847 -177.56,140.847 -126.28,0 -190.18,-96.648 -190.18,-215.847 0,-119.239 66.48,-215.8714 190.18,-215.8714 99.01,0 165.84,57.5584 178.12,145.7614 h -87.13 c -11.31,-41.511 -38.51,-73.125 -88.61,-73.125" /></g></g></svg>