<?xml version="1.0" encoding="iso-8859-1"?>
<!-- Generator: Adobe Illustrator 16.0.4, SVG Export Plug-In . SVG Version: 6.00 Build 0)  -->
<!DOCTYPE svg PUBLIC "-//W3C//DTD SVG 1.1//EN" "http://www.w3.org/Graphics/SVG/1.1/DTD/svg11.dtd">
<svg version="1.1" xmlns="http://www.w3.org/2000/svg" xmlns:xlink="http://www.w3.org/1999/xlink" x="0px" y="0px" 
	 viewBox="0 0 1000 423" style="enable-background:new 0 0 1000 423;" xml:space="preserve">
<g id="Layer">
	<polygon style="fill:#FFFFFF;" points="0,423 1000,423 1000,0 0,0 0,0 	"/>
</g>
<g id="SIEMENS">
	<g>
		<path style="fill-rule:evenodd;clip-rule:evenodd;fill:#009999;" d="M160.6,261.812v-20.636
			c11.744,3.696,22.137,5.543,31.176,5.543c12.482,0,18.723-3.297,18.723-9.892c0-2.456-0.908-4.522-2.729-6.193
			c-1.862-1.774-6.63-4.237-14.294-7.387c-13.749-5.653-22.715-10.475-26.885-14.462c-5.406-5.264-8.108-11.903-8.108-19.925
			c0-10.33,3.938-18.204,11.808-23.614c7.783-5.364,17.918-8.043,30.42-8.043c6.889,0,16.858,1.268,29.9,3.807v19.849
			c-9.703-3.875-18.71-5.81-27.032-5.81c-11.719,0-17.577,3.218-17.577,9.667c0,2.412,1.18,4.377,3.543,5.901
			c1.965,1.233,7.381,3.84,16.235,7.826c12.749,5.662,21.236,10.583,25.464,14.769c5.018,4.965,7.531,11.391,7.531,19.266
			c0,11.32-4.923,19.958-14.764,25.907c-7.972,4.826-18.311,7.228-31.007,7.228C182.282,265.612,171.478,264.348,160.6,261.812
			L160.6,261.812z"/>
		<polygon style="fill-rule:evenodd;clip-rule:evenodd;fill:#009999;" points="255.258,159.02 255.256,159.02 284.441,159.02 
			284.441,263.5 255.258,263.5 		"/>
		<polygon style="fill-rule:evenodd;clip-rule:evenodd;fill:#009999;" points="311.206,263.5 311.206,159.02 386.056,159.02 
			386.056,177.917 339.333,177.917 339.333,201.509 380.003,201.509 380.003,218.748 339.333,218.748 339.333,243.543 
			387.26,243.543 387.26,263.5 311.206,263.5 		"/>
		<polygon style="fill-rule:evenodd;clip-rule:evenodd;fill:#009999;" points="406.312,263.5 406.312,159.02 444.15,159.02 
			470.438,225.777 497.386,159.02 533.328,159.02 533.328,263.5 505.654,263.5 505.654,189.526 475.015,264.562 456.925,264.562 
			426.874,189.526 426.874,263.5 406.312,263.5 		"/>
		<polygon style="fill-rule:evenodd;clip-rule:evenodd;fill:#009999;" points="560.098,263.5 560.098,159.02 634.945,159.02 
			634.945,177.917 588.223,177.917 588.223,201.509 628.896,201.509 628.896,218.748 588.223,218.748 588.223,243.543 
			636.154,243.543 636.154,263.5 560.098,263.5 		"/>
		<polygon style="fill-rule:evenodd;clip-rule:evenodd;fill:#009999;" points="655.361,263.5 655.361,159.02 689.185,159.02 
			725.069,228.964 725.069,159.02 745.623,159.02 745.623,263.5 712.764,263.5 675.925,192.618 675.925,263.5 655.361,263.5 		"/>
		<path style="fill-rule:evenodd;clip-rule:evenodd;fill:#009999;" d="M766.345,261.812v-20.636
			c11.641,3.696,22.035,5.543,31.179,5.543c12.481,0,18.717-3.297,18.717-9.892c0-2.456-0.886-4.522-2.646-6.193
			c-1.871-1.774-6.656-4.237-14.366-7.387c-13.712-5.604-22.683-10.427-26.893-14.462c-5.405-5.218-8.103-11.88-8.103-19.996
			c0-10.285,3.931-18.133,11.806-23.543c7.772-5.364,17.922-8.043,30.424-8.043c7.028,0,16.137,1.116,27.31,3.359l2.584,0.448
			v19.849c-9.705-3.875-18.741-5.81-27.106-5.81c-11.672,0-17.494,3.218-17.494,9.667c0,2.412,1.171,4.377,3.531,5.901
			c1.871,1.187,7.307,3.793,16.312,7.826c12.654,5.662,21.122,10.583,25.387,14.769c5.026,4.965,7.531,11.391,7.531,19.266
			c0,11.32-4.896,19.958-14.687,25.907c-8.017,4.826-18.383,7.228-31.075,7.228C788.018,265.612,777.214,264.348,766.345,261.812
			L766.345,261.812z"/>
	</g>
</g>
</svg>
