<!DOCTYPE svg PUBLIC "-//W3C//DTD SVG 20010904//EN" "http://www.w3.org/TR/2001/REC-SVG-20010904/DTD/svg10.dtd">
<svg version="1.0" xmlns="http://www.w3.org/2000/svg"  viewBox="-800 0 13580 2081" preserveAspectRatio="xMidYMid meet">
<g id="layer101" fill="#005ca9" stroke="none">
 <path d="M3644 1799 c-78 -5 -188 -15 -244 -24 -57 -8 -109 -15 -117 -15 -10 0 -13 -42 -13 -206 0 -191 1 -205 18 -200 119 36 503 73 629 61 66 -6 81 -11 105 -35 24 -25 28 -36 28 -86 0 -86 -17 -98 -341 -237 -303 -131 -359 -165 -418 -257 -57 -87 -75 -162 -74 -305 0 -277 93 -415 315 -471 45 -11 132 -17 308 -21 237 -5 365 2 543 29 l77 11 0 204 c0 190 -1 204 -17 199 -48 -15 -264 -46 -393 -56 -146 -12 -274 -7 -316 12 -49 22 -69 115 -37 169 21 36 78 66 333 174 260 111 304 133 362 184 54 48 101 135 118 218 19 90 8 303 -19 384 -31 90 -82 155 -156 195 -76 43 -158 61 -326 74 -146 11 -158 11 -365 -1z"/>
 <path d="M600 1437 l0 -354 -46 -59 c-65 -83 -189 -269 -267 -402 -113 -189 -287 -553 -287 -598 0 -12 44 -14 253 -14 l253 0 38 103 c50 134 141 333 218 475 72 132 58 135 148 -33 70 -132 168 -351 207 -463 l28 -82 258 0 258 0 -7 23 c-4 12 -27 69 -51 127 -119 278 -312 612 -495 852 l-58 77 0 350 0 351 -225 0 -225 0 0 -353z"/>
 <path d="M1444 1773 c2 -10 25 -97 50 -193 114 -445 329 -1057 506 -1440 l58 -125 245 -3 245 -2 57 127 c121 269 230 549 335 863 91 272 220 727 220 774 0 14 -29 16 -239 16 l-239 0 -33 -142 -34 -143 -311 -3 -310 -2 -35 145 -34 145 -243 0 c-227 0 -243 -1 -238 -17z m1062 -660 c-111 -371 -197 -626 -206 -616 -13 14 -200 598 -200 623 0 6 79 10 206 10 191 0 205 -1 200 -17z"/>
 <path d="M4780 900 l0 -890 225 0 225 0 0 348 1 347 52 -55 c100 -106 324 -416 429 -594 l28 -46 266 0 266 0 -27 48 c-104 181 -356 531 -495 684 l-70 77 71 88 c116 144 329 475 414 643 16 30 30 51 31 45 2 -5 26 -90 54 -188 121 -429 308 -939 479 -1309 l40 -88 244 0 244 0 58 127 c126 279 271 662 385 1018 56 177 157 538 167 597 l6 38 -241 0 -240 0 -34 -142 -33 -143 -311 -3 -310 -2 -35 145 -34 145 -440 0 -440 0 -64 -127 c-124 -252 -331 -592 -436 -718 l-25 -30 0 438 0 437 -225 0 -225 0 0 -890z m2436 213 c-106 -354 -197 -626 -206 -616 -13 14 -200 598 -200 624 0 5 86 9 206 9 191 0 205 -1 200 -17z"/>
 <path d="M8247 1783 c-11 -18 -140 -426 -202 -633 -123 -417 -295 -1072 -295 -1122 0 -17 18 -18 240 -18 l239 0 7 38 c47 273 240 1122 255 1122 13 0 205 -801 255 -1068 l18 -92 220 2 220 3 18 90 c71 359 247 1085 258 1064 17 -31 176 -729 229 -1004 12 -60 24 -120 27 -133 l4 -22 240 0 c185 0 240 3 240 13 0 22 -109 456 -176 702 -70 253 -190 659 -271 910 l-49 150 -251 3 -251 2 -31 -112 c-32 -115 -169 -666 -192 -771 -7 -31 -13 -56 -15 -54 -1 1 -28 108 -59 237 -30 129 -83 340 -117 468 l-61 232 -248 0 c-136 0 -250 -3 -252 -7z"/>
 <path d="M10106 1728 c105 -456 357 -1185 557 -1611 l50 -107 242 0 242 0 53 113 c119 253 287 696 400 1057 65 206 160 556 160 587 l0 23 -238 0 -238 0 -35 -142 -35 -143 -310 -3 -311 -2 -33 145 -33 145 -243 0 -242 0 14 -62z m1048 -625 c-10 -41 -117 -379 -161 -511 l-39 -114 -88 274 c-111 345 -116 360 -116 370 0 4 92 8 205 8 l205 0 -6 -27z"/>
 </g>

</svg>